<mxfile host="app.diagrams.net" modified="2023-04-26T14:14:10.456Z" agent="Mozilla/5.0 (Windows NT 10.0; Win64; x64) AppleWebKit/537.36 (KHTML, like Gecko) Chrome/112.0.0.0 Safari/537.36" etag="I1tYjNCPFJ8EDpcpHgjp" version="21.2.2" type="github" pages="2">
  <diagram name="Page-1" id="shxLxDpF6aS1rx0WZMZi">
    <mxGraphModel dx="8796" dy="2092" grid="1" gridSize="10" guides="1" tooltips="1" connect="1" arrows="1" fold="1" page="1" pageScale="1" pageWidth="1600" pageHeight="900" math="0" shadow="0">
      <root>
        <mxCell id="0" />
        <mxCell id="1" parent="0" />
        <mxCell id="HiYyP2aToEBC_EHWEOvc-2" value="" style="group" vertex="1" connectable="0" parent="1">
          <mxGeometry x="-4400" y="70" width="2940" height="1790" as="geometry" />
        </mxCell>
        <mxCell id="7QUZWtB4dJHYFj4OBpv9-12" value="" style="rounded=0;whiteSpace=wrap;html=1;" parent="HiYyP2aToEBC_EHWEOvc-2" vertex="1">
          <mxGeometry x="60" y="20" width="2880" height="1770" as="geometry" />
        </mxCell>
        <mxCell id="HjHMae9bZ6i-JMCGqR1p-1" value="" style="rounded=0;whiteSpace=wrap;html=1;" vertex="1" parent="HiYyP2aToEBC_EHWEOvc-2">
          <mxGeometry x="64" y="20" width="396" height="1770" as="geometry" />
        </mxCell>
        <mxCell id="HjHMae9bZ6i-JMCGqR1p-4" value="" style="rounded=0;whiteSpace=wrap;html=1;" vertex="1" parent="HiYyP2aToEBC_EHWEOvc-2">
          <mxGeometry x="632" y="380" width="1130" height="640" as="geometry" />
        </mxCell>
        <mxCell id="HjHMae9bZ6i-JMCGqR1p-5" value="" style="rounded=0;whiteSpace=wrap;html=1;" vertex="1" parent="HiYyP2aToEBC_EHWEOvc-2">
          <mxGeometry x="630" y="1090" width="1270" height="580" as="geometry" />
        </mxCell>
        <mxCell id="HjHMae9bZ6i-JMCGqR1p-6" value="" style="rounded=0;whiteSpace=wrap;html=1;" vertex="1" parent="HiYyP2aToEBC_EHWEOvc-2">
          <mxGeometry x="1810" y="380" width="929" height="640" as="geometry" />
        </mxCell>
        <mxCell id="HjHMae9bZ6i-JMCGqR1p-7" value="" style="rounded=0;whiteSpace=wrap;html=1;" vertex="1" parent="HiYyP2aToEBC_EHWEOvc-2">
          <mxGeometry x="1940" y="1090" width="797" height="580" as="geometry" />
        </mxCell>
        <mxCell id="HjHMae9bZ6i-JMCGqR1p-8" value="" style="rounded=0;whiteSpace=wrap;html=1;" vertex="1" parent="HiYyP2aToEBC_EHWEOvc-2">
          <mxGeometry x="630" y="140" width="620" height="120" as="geometry" />
        </mxCell>
        <mxCell id="HjHMae9bZ6i-JMCGqR1p-9" value="&lt;span style=&quot;font-size: 72px;&quot;&gt;Sales Dashboard&lt;/span&gt;" style="text;html=1;strokeColor=none;fillColor=none;align=center;verticalAlign=middle;whiteSpace=wrap;rounded=0;" vertex="1" parent="HiYyP2aToEBC_EHWEOvc-2">
          <mxGeometry x="660" width="574" height="420" as="geometry" />
        </mxCell>
        <mxCell id="HjHMae9bZ6i-JMCGqR1p-10" value="&lt;font style=&quot;font-size: 72px;&quot;&gt;Navigation&amp;nbsp;&lt;br&gt;Bar&lt;br&gt;&lt;/font&gt;" style="text;html=1;strokeColor=none;fillColor=none;align=center;verticalAlign=middle;whiteSpace=wrap;rounded=0;" vertex="1" parent="HiYyP2aToEBC_EHWEOvc-2">
          <mxGeometry y="670" width="540" height="310" as="geometry" />
        </mxCell>
        <mxCell id="HjHMae9bZ6i-JMCGqR1p-14" value="&lt;font style=&quot;font-size: 36px;&quot;&gt;Sum of total Revenue by Region&lt;/font&gt;" style="text;html=1;strokeColor=none;fillColor=none;align=center;verticalAlign=middle;whiteSpace=wrap;rounded=0;" vertex="1" parent="HiYyP2aToEBC_EHWEOvc-2">
          <mxGeometry x="561" y="210" width="729" height="430" as="geometry" />
        </mxCell>
        <mxCell id="HjHMae9bZ6i-JMCGqR1p-20" value="&lt;font style=&quot;font-size: 50px;&quot;&gt;&lt;b&gt;Regional Performance&lt;/b&gt;&lt;/font&gt;" style="text;html=1;strokeColor=none;fillColor=none;align=center;verticalAlign=middle;whiteSpace=wrap;rounded=0;" vertex="1" parent="HiYyP2aToEBC_EHWEOvc-2">
          <mxGeometry x="522.5" y="180" width="806" height="312" as="geometry" />
        </mxCell>
        <mxCell id="HjHMae9bZ6i-JMCGqR1p-22" value="&lt;font style=&quot;font-size: 36px;&quot;&gt;Total Profit by Region&lt;/font&gt;" style="text;html=1;strokeColor=none;fillColor=none;align=center;verticalAlign=middle;whiteSpace=wrap;rounded=0;" vertex="1" parent="HiYyP2aToEBC_EHWEOvc-2">
          <mxGeometry x="1650" y="210" width="729" height="430" as="geometry" />
        </mxCell>
        <mxCell id="HjHMae9bZ6i-JMCGqR1p-23" value="&lt;font style=&quot;font-size: 36px;&quot;&gt;Total cost by Region&lt;/font&gt;" style="text;html=1;strokeColor=none;fillColor=none;align=center;verticalAlign=middle;whiteSpace=wrap;rounded=0;" vertex="1" parent="HiYyP2aToEBC_EHWEOvc-2">
          <mxGeometry x="471" y="930" width="729" height="430" as="geometry" />
        </mxCell>
        <mxCell id="HjHMae9bZ6i-JMCGqR1p-24" value="&lt;font style=&quot;font-size: 36px;&quot;&gt;Total unit sold by Region&lt;/font&gt;" style="text;html=1;strokeColor=none;fillColor=none;align=center;verticalAlign=middle;whiteSpace=wrap;rounded=0;" vertex="1" parent="HiYyP2aToEBC_EHWEOvc-2">
          <mxGeometry x="1790" y="920" width="729" height="430" as="geometry" />
        </mxCell>
      </root>
    </mxGraphModel>
  </diagram>
  <diagram id="wn2GZ2wXl6I2iBpBpi5Q" name="Page-2">
    <mxGraphModel dx="5596" dy="2992" grid="1" gridSize="10" guides="1" tooltips="1" connect="1" arrows="1" fold="1" page="1" pageScale="1" pageWidth="1600" pageHeight="900" math="0" shadow="0">
      <root>
        <mxCell id="0" />
        <mxCell id="1" parent="0" />
        <mxCell id="IYCyodOPx46WVCu3M2G2-2" value="" style="rounded=0;whiteSpace=wrap;html=1;" vertex="1" parent="1">
          <mxGeometry x="90" width="2880" height="1770" as="geometry" />
        </mxCell>
        <mxCell id="IYCyodOPx46WVCu3M2G2-3" value="" style="rounded=0;whiteSpace=wrap;html=1;" vertex="1" parent="1">
          <mxGeometry x="94" width="396" height="1770" as="geometry" />
        </mxCell>
        <mxCell id="IYCyodOPx46WVCu3M2G2-5" value="" style="rounded=0;whiteSpace=wrap;html=1;" vertex="1" parent="1">
          <mxGeometry x="-1190" y="1830" width="1270" height="580" as="geometry" />
        </mxCell>
        <mxCell id="IYCyodOPx46WVCu3M2G2-6" value="" style="rounded=0;whiteSpace=wrap;html=1;" vertex="1" parent="1">
          <mxGeometry x="660" y="388" width="779" height="544" as="geometry" />
        </mxCell>
        <mxCell id="IYCyodOPx46WVCu3M2G2-8" value="" style="rounded=0;whiteSpace=wrap;html=1;" vertex="1" parent="1">
          <mxGeometry x="660" y="120" width="620" height="120" as="geometry" />
        </mxCell>
        <mxCell id="IYCyodOPx46WVCu3M2G2-9" value="&lt;span style=&quot;font-size: 72px;&quot;&gt;Sales Dashboard&lt;/span&gt;" style="text;html=1;strokeColor=none;fillColor=none;align=center;verticalAlign=middle;whiteSpace=wrap;rounded=0;" vertex="1" parent="1">
          <mxGeometry x="690" y="-20" width="574" height="420" as="geometry" />
        </mxCell>
        <mxCell id="IYCyodOPx46WVCu3M2G2-10" value="&lt;font style=&quot;font-size: 72px;&quot;&gt;Navigation&amp;nbsp;&lt;br&gt;Bar&lt;br&gt;&lt;/font&gt;" style="text;html=1;strokeColor=none;fillColor=none;align=center;verticalAlign=middle;whiteSpace=wrap;rounded=0;" vertex="1" parent="1">
          <mxGeometry x="30" y="650" width="540" height="310" as="geometry" />
        </mxCell>
        <mxCell id="IYCyodOPx46WVCu3M2G2-11" value="&lt;font style=&quot;font-size: 36px;&quot;&gt;Top 3 Countries by Revenue &amp;amp; Profit&lt;/font&gt;" style="text;html=1;strokeColor=none;fillColor=none;align=center;verticalAlign=middle;whiteSpace=wrap;rounded=0;" vertex="1" parent="1">
          <mxGeometry x="612.5" y="220" width="729" height="430" as="geometry" />
        </mxCell>
        <mxCell id="IYCyodOPx46WVCu3M2G2-12" value="&lt;font style=&quot;font-size: 50px;&quot;&gt;&lt;b&gt;Performance by Country&lt;/b&gt;&lt;/font&gt;" style="text;html=1;strokeColor=none;fillColor=none;align=center;verticalAlign=middle;whiteSpace=wrap;rounded=0;" vertex="1" parent="1">
          <mxGeometry x="560" y="180" width="806" height="312" as="geometry" />
        </mxCell>
        <mxCell id="IYCyodOPx46WVCu3M2G2-13" value="&lt;font style=&quot;font-size: 36px;&quot;&gt;Total Profit by Region&lt;/font&gt;" style="text;html=1;strokeColor=none;fillColor=none;align=center;verticalAlign=middle;whiteSpace=wrap;rounded=0;" vertex="1" parent="1">
          <mxGeometry x="1358.5" y="1850" width="729" height="430" as="geometry" />
        </mxCell>
        <mxCell id="zaTAto3qaK4FjuRli_af-1" value="" style="rounded=0;whiteSpace=wrap;html=1;" vertex="1" parent="1">
          <mxGeometry x="2460" width="510" height="1770" as="geometry" />
        </mxCell>
        <mxCell id="zaTAto3qaK4FjuRli_af-5" value="" style="rounded=0;whiteSpace=wrap;html=1;" vertex="1" parent="1">
          <mxGeometry x="2485.63" y="270" width="458.75" height="310" as="geometry" />
        </mxCell>
        <mxCell id="zaTAto3qaK4FjuRli_af-6" value="&lt;font style=&quot;font-size: 50px;&quot;&gt;Total Revenue&lt;/font&gt;" style="text;html=1;strokeColor=none;fillColor=none;align=center;verticalAlign=middle;whiteSpace=wrap;rounded=0;" vertex="1" parent="1">
          <mxGeometry x="2250" y="70" width="806" height="310" as="geometry" />
        </mxCell>
        <mxCell id="zaTAto3qaK4FjuRli_af-7" value="&lt;font style=&quot;font-size: 50px;&quot;&gt;Unit Price&lt;/font&gt;" style="text;html=1;strokeColor=none;fillColor=none;align=center;verticalAlign=middle;whiteSpace=wrap;rounded=0;" vertex="1" parent="1">
          <mxGeometry x="2200" y="559" width="806" height="312" as="geometry" />
        </mxCell>
        <mxCell id="zaTAto3qaK4FjuRli_af-8" value="&lt;font style=&quot;font-size: 50px;&quot;&gt;Units Sold&lt;/font&gt;" style="text;html=1;strokeColor=none;fillColor=none;align=center;verticalAlign=middle;whiteSpace=wrap;rounded=0;" vertex="1" parent="1">
          <mxGeometry x="2200" y="1100" width="806" height="316" as="geometry" />
        </mxCell>
        <mxCell id="zaTAto3qaK4FjuRli_af-10" value="" style="rounded=0;whiteSpace=wrap;html=1;" vertex="1" parent="1">
          <mxGeometry x="2485.62" y="760" width="458.75" height="310" as="geometry" />
        </mxCell>
        <mxCell id="zaTAto3qaK4FjuRli_af-11" value="" style="rounded=0;whiteSpace=wrap;html=1;" vertex="1" parent="1">
          <mxGeometry x="2480" y="1300" width="458.75" height="310" as="geometry" />
        </mxCell>
        <mxCell id="zaTAto3qaK4FjuRli_af-12" value="" style="rounded=0;whiteSpace=wrap;html=1;" vertex="1" parent="1">
          <mxGeometry x="660" y="986" width="1660" height="694" as="geometry" />
        </mxCell>
        <mxCell id="zaTAto3qaK4FjuRli_af-13" value="" style="rounded=0;whiteSpace=wrap;html=1;" vertex="1" parent="1">
          <mxGeometry x="1480" y="386" width="840" height="544" as="geometry" />
        </mxCell>
        <mxCell id="c5eKRNtTt4P1NRR4ljIf-1" value="&lt;font style=&quot;font-size: 36px;&quot;&gt;Bottom 3 Countries by Revenue &amp;amp; Profit&lt;/font&gt;" style="text;html=1;strokeColor=none;fillColor=none;align=center;verticalAlign=middle;whiteSpace=wrap;rounded=0;" vertex="1" parent="1">
          <mxGeometry x="1460" y="230" width="729" height="430" as="geometry" />
        </mxCell>
        <mxCell id="c5eKRNtTt4P1NRR4ljIf-2" value="&lt;font style=&quot;font-size: 36px;&quot;&gt;Total units sold per country&lt;/font&gt;" style="text;html=1;strokeColor=none;fillColor=none;align=center;verticalAlign=middle;whiteSpace=wrap;rounded=0;" vertex="1" parent="1">
          <mxGeometry x="1100" y="810" width="729" height="430" as="geometry" />
        </mxCell>
      </root>
    </mxGraphModel>
  </diagram>
</mxfile>
